<!-- Generated by IcoMoon.io -->
<svg version="1.1" xmlns="http://www.w3.org/2000/svg" width="111" height="32" viewBox="0 0 111 32">
<title>E-mail</title>
<path fill="#fff" opacity="0.6" d="M16.615 16.596h-12.135v9.923h14.096v3.019h-17.788v-28h17.596v3.038h-13.904v9h12.135v3.019zM31.201 19.096h-9.385v-2.904h9.385v2.904zM39.209 8.731l0.096 2.308c1.526-1.795 3.583-2.692 6.173-2.692 2.91 0 4.891 1.115 5.942 3.346 0.692-1 1.59-1.808 2.692-2.423 1.116-0.615 2.43-0.923 3.942-0.923 4.564 0 6.885 2.417 6.961 7.25v13.942h-3.558v-13.731c0-1.487-0.34-2.596-1.019-3.327-0.68-0.744-1.821-1.115-3.423-1.115-1.32 0-2.416 0.397-3.288 1.192-0.872 0.782-1.378 1.84-1.519 3.173v13.808h-3.577v-13.635c0-3.026-1.481-4.538-4.442-4.538-2.333 0-3.93 0.994-4.788 2.981v15.192h-3.558v-20.808h3.365zM84.429 29.538c-0.205-0.41-0.372-1.141-0.5-2.192-1.654 1.718-3.628 2.577-5.923 2.577-2.051 0-3.737-0.577-5.058-1.731-1.308-1.167-1.962-2.641-1.962-4.423 0-2.167 0.821-3.846 2.462-5.038 1.654-1.205 3.974-1.808 6.962-1.808h3.461v-1.635c0-1.244-0.372-2.231-1.115-2.962-0.744-0.744-1.84-1.115-3.288-1.115-1.269 0-2.334 0.321-3.192 0.962s-1.289 1.417-1.289 2.327h-3.577c0-1.038 0.366-2.038 1.096-3 0.744-0.974 1.744-1.744 3-2.308 1.269-0.564 2.66-0.846 4.173-0.846 2.397 0 4.276 0.603 5.635 1.808 1.359 1.192 2.064 2.84 2.115 4.942v9.577c0 1.91 0.244 3.43 0.731 4.558v0.308h-3.731zM78.525 26.827c1.116 0 2.173-0.288 3.173-0.865s1.724-1.327 2.173-2.25v-4.269h-2.788c-4.359 0-6.538 1.276-6.538 3.827 0 1.115 0.372 1.987 1.115 2.615s1.699 0.942 2.865 0.942zM98.053 29.538h-3.558v-20.808h3.558v20.808zM94.207 3.212c0-0.577 0.173-1.064 0.519-1.462 0.359-0.397 0.885-0.596 1.577-0.596s1.218 0.199 1.577 0.596c0.359 0.397 0.539 0.885 0.539 1.462s-0.179 1.058-0.539 1.442c-0.359 0.385-0.884 0.577-1.577 0.577s-1.218-0.192-1.577-0.577c-0.346-0.385-0.519-0.865-0.519-1.442zM108.812 29.538h-3.558v-29.538h3.558v29.538z"></path>
</svg>
